<?xml version="1.0" standalone="no"?><!DOCTYPE svg PUBLIC "-//W3C//DTD SVG 1.1//EN" "http://www.w3.org/Graphics/SVG/1.1/DTD/svg11.dtd"><svg class="icon" width="200px" height="200.00px" viewBox="0 0 1024 1024" version="1.1" xmlns="http://www.w3.org/2000/svg"><path d="M928 128h-159.999v-96c0 0 0 0 0 0 0-19.2-12.8-32-32-32h-448c-19.2 0-32 12.8-32 32 0 0 0 0 0 0v96h-159.999c-19.2 0-32 12.8-32 32s12.8 32 32 32h832.003c19.2 0 32-12.8 32-32s-12.8-32-32-32zM704.001 128h-384v-64h384v64z" fill="#992d28" /><path d="M863.999 256.001h-704c-19.2 0-32 12.8-32 32v704c0 19.2 12.8 32 32 32h704c19.2 0 32-12.8 32-32v-704c0-19.2-12.8-32-32-32zM831.998 960h-640v-640h640v640z" fill="#992d28" /><path d="M416 896c19.2 0 32-12.8 32-32v-448c0-19.2-12.8-32-32-32s-32 12.8-32 32v448c0 19.2 12.8 32 32 32z" fill="#992d28" /><path d="M608 896c19.2 0 32-12.8 32-32v-448c0-19.2-12.8-32-32-32s-32 12.8-32 32v448c0 19.2 12.8 32 32 32z" fill="#992d28" /><path d="M767.999 192.002v0 0 0 0z" fill="#992d28" /></svg>